<svg xmlns="http://www.w3.org/2000/svg" width="12.002" height="13.002" viewBox="0 0 12.002 13.002">
  <g id="arrow-left-right" transform="translate(-1.999 -1.499)">
    <path id="Path_13" data-name="Path 13" d="M10.146,7.646a.5.5,0,0,1,.708,0l3,3a.5.5,0,0,1,0,.708l-3,3a.5.5,0,1,1-.708-.708L12.793,11,10.146,8.354a.5.5,0,0,1,0-.708Z" fill="#f8f8f8" fill-rule="evenodd"/>
    <path id="Path_14" data-name="Path 14" d="M2,11a.5.5,0,0,1,.5-.5H13a.5.5,0,0,1,0,1H2.5A.5.5,0,0,1,2,11ZM5.854,1.646a.5.5,0,0,1,0,.708L3.207,5,5.854,7.646a.5.5,0,0,1-.708.708l-3-3a.5.5,0,0,1,0-.708l3-3a.5.5,0,0,1,.708,0Z" fill="#f8f8f8" fill-rule="evenodd"/>
    <path id="Path_15" data-name="Path 15" d="M2.5,5A.5.5,0,0,1,3,4.5H13.5a.5.5,0,0,1,0,1H3A.5.5,0,0,1,2.5,5Z" fill="#f8f8f8" fill-rule="evenodd"/>
  </g>
</svg>
