<svg xmlns="http://www.w3.org/2000/svg" width="18.849" height="12.079" viewBox="0 0 18.849 12.079">
  <g id="Group_226" data-name="Group 226" transform="translate(-154.651 -264)">
    <g id="Group_225" data-name="Group 225" transform="translate(19469 -6355)">
      <line id="Line_26" data-name="Line 26" x2="14" transform="translate(-19309.5 6619.5)" fill="none" stroke="#e84362" stroke-width="1"/>
      <line id="Line_26-2" data-name="Line 26" x2="12" transform="translate(-19307.5 6621.5)" fill="none" stroke="#555" stroke-width="1"/>
      <line id="Line_26-3" data-name="Line 26" x2="12" transform="translate(-19307.5 6623.5)" fill="none" stroke="#555" stroke-width="1"/>
      <line id="Line_26-4" data-name="Line 26" x2="12" transform="translate(-19307.5 6625.5)" fill="none" stroke="#555" stroke-width="1"/>
      <line id="Line_26-5" data-name="Line 26" x2="12" transform="translate(-19307.5 6627.5)" fill="none" stroke="#555" stroke-width="1"/>
      <path id="Path_3894" data-name="Path 3894" d="M-1.3,0h14" transform="translate(-19308.197 6629.5)" fill="none" stroke="#61c9c8" stroke-width="1"/>
    </g>
    <g id="arrow-down-sign-to-navigate_1_" data-name="arrow-down-sign-to-navigate (1)" transform="translate(154.65 176.346)">
      <path id="Path_3895" data-name="Path 3895" d="M2.274,99.732a.317.317,0,0,1-.225-.093L.094,97.684a.318.318,0,0,1,.45-.45l1.73,1.73L4,97.234a.318.318,0,0,1,.45.45L2.5,99.639A.317.317,0,0,1,2.274,99.732Z" transform="translate(0)" fill="#61c9c8"/>
    </g>
  </g>
</svg>
