<svg xmlns="http://www.w3.org/2000/svg" width="12" height="10" viewBox="0 0 12 10">
  <g id="money_1_" data-name="money (1)" transform="translate(0 -46)">
    <path id="Path_16" data-name="Path 16" d="M246.234,386a.238.238,0,1,0,.234.238A.236.236,0,0,0,246.234,386Z" transform="translate(-240.234 -331.905)" fill="#fff"/>
    <path id="Path_17" data-name="Path 17" d="M10.994,46.366A5.742,5.742,0,0,0,8.883,46a5.742,5.742,0,0,0-2.111.366,2.077,2.077,0,0,0-.771.5,2.077,2.077,0,0,0-.771-.5A5.742,5.742,0,0,0,3.117,46a5.742,5.742,0,0,0-2.111.366C.357,46.631,0,47.009,0,47.429v5.714c0,.42.357.8,1.006,1.063a5.622,5.622,0,0,0,1.947.364v0C2.953,55.386,4.263,56,6,56s3.047-.614,3.047-1.429v0a5.622,5.622,0,0,0,1.947-.364C11.643,53.94,12,53.563,12,53.143V47.429C12,47.009,11.643,46.631,10.994,46.366Zm.537,5.348c0,.2-.273.441-.712.621a5.225,5.225,0,0,1-1.772.329v-.952a5.621,5.621,0,0,0,1.947-.364,2.539,2.539,0,0,0,.537-.292v.657ZM5.766,48.857c0,.2-.273.441-.712.621a5.351,5.351,0,0,1-1.936.331,5.351,5.351,0,0,1-1.936-.331c-.439-.18-.712-.418-.712-.621V48.2a2.539,2.539,0,0,0,.537.292,5.742,5.742,0,0,0,2.111.366,5.742,5.742,0,0,0,2.111-.366,2.539,2.539,0,0,0,.537-.292ZM1.006,49.92a5.742,5.742,0,0,0,2.111.366,5.742,5.742,0,0,0,2.111-.366,2.539,2.539,0,0,0,.537-.292v.662a5.619,5.619,0,0,0-1.658.29,2.015,2.015,0,0,0-1,.658,5.347,5.347,0,0,1-1.931-.331c-.439-.18-.712-.418-.712-.621v-.657A2.539,2.539,0,0,0,1.006,49.92ZM.469,51.057a2.539,2.539,0,0,0,.537.292,5.622,5.622,0,0,0,1.947.364v.952a5.225,5.225,0,0,1-1.772-.329c-.439-.18-.712-.418-.712-.621Zm2.978.541c.174-.411,1.176-.835,2.553-.835s2.38.425,2.553.835a.3.3,0,0,1,.025.117c0,.209-.254.442-.68.622a5.03,5.03,0,0,1-1.9.33,5.03,5.03,0,0,1-1.9-.33c-.426-.18-.68-.413-.68-.622A.3.3,0,0,1,3.447,51.6Zm8.085-1.312c0,.2-.273.441-.712.621a5.347,5.347,0,0,1-1.931.331,2.015,2.015,0,0,0-1-.658,5.619,5.619,0,0,0-1.658-.29v-.662a2.539,2.539,0,0,0,.537.292,5.742,5.742,0,0,0,2.111.366,5.742,5.742,0,0,0,2.111-.366,2.539,2.539,0,0,0,.537-.292Zm0-1.429c0,.2-.273.441-.712.621a5.351,5.351,0,0,1-1.936.331,5.351,5.351,0,0,1-1.936-.331c-.439-.18-.712-.418-.712-.621V48.2a2.539,2.539,0,0,0,.537.292,5.742,5.742,0,0,0,2.111.366,5.742,5.742,0,0,0,2.111-.366,2.539,2.539,0,0,0,.537-.292ZM6.947,46.808a5.351,5.351,0,0,1,1.936-.331,5.351,5.351,0,0,1,1.936.331c.439.18.712.418.712.621s-.273.441-.712.621a5.351,5.351,0,0,1-1.936.331,5.351,5.351,0,0,1-1.936-.331c-.439-.18-.712-.418-.712-.621S6.507,46.987,6.947,46.808Zm-5.766,0a5.351,5.351,0,0,1,1.936-.331,5.351,5.351,0,0,1,1.936.331c.439.18.712.418.712.621s-.273.441-.712.621a5.351,5.351,0,0,1-1.936.331,5.351,5.351,0,0,1-1.936-.331c-.439-.18-.712-.418-.712-.621S.742,46.987,1.181,46.808Zm0,6.956c-.439-.18-.712-.418-.712-.621v-.657a2.54,2.54,0,0,0,.537.292,5.622,5.622,0,0,0,1.947.364v.952A5.225,5.225,0,0,1,1.181,53.764ZM7.9,55.193a5.03,5.03,0,0,1-1.9.33,5.03,5.03,0,0,1-1.9-.33c-.426-.18-.68-.413-.68-.622v-.644a2.06,2.06,0,0,0,.177.116,4.059,4.059,0,0,0,1.432.458l.034,0A.238.238,0,0,0,5.1,54.03c-1.089-.162-1.677-.579-1.677-.888V52.5A4.52,4.52,0,0,0,6,53.143,4.52,4.52,0,0,0,8.578,52.5v.646c0,.309-.588.725-1.677.888a.238.238,0,0,0,.034.474l.034,0A4.059,4.059,0,0,0,8.4,54.044a2.063,2.063,0,0,0,.177-.116v.644C8.578,54.781,8.324,55.013,7.9,55.193Zm2.921-1.43a5.225,5.225,0,0,1-1.772.329v-.952a5.622,5.622,0,0,0,1.947-.364,2.54,2.54,0,0,0,.537-.292v.657C11.531,53.346,11.258,53.584,10.819,53.764Z" fill="#fff"/>
  </g>
</svg>
