<svg xmlns="http://www.w3.org/2000/svg" width="1414.007" height="706.025" viewBox="0 0 1414.007 706.025">
  <path id="Path_3803" data-name="Path 3803" d="M575.726,896.954C750.29,776.021,816.525,753.84,871.253,764.77c49.191,9.816,91.677,18.3,151.2-18.138,47.693-29.2,83.588-74.542,118.308-118.384,58.021-73.285,112.848-142.518,213.068-124.231,163.586,29.829,268.125,41.5,352.9-88.666,72.321-111.04,133.758-228.488,282.975-224.314h0v18.685c-132.057-3.8-181.528,84.563-266.848,215.561-96,147.409-224.16,124.032-372.536,96.983-88.742-16.2-137.723,45.679-194.431,117.307-35.737,45.131-72.687,91.8-123.267,122.765-66,40.42-114.185,30.8-165.2,20.616-51.959-10.378-128.28,19.311-260.794,113.954Z" transform="translate(-575.726 -190.929)" fill="#2b2c2e"/>
</svg>
