<svg xmlns="http://www.w3.org/2000/svg" width="11.664" height="11.663" viewBox="0 0 11.664 11.663">
  <g id="play-button" transform="translate(0 -0.002)">
    <path id="Path_3892" data-name="Path 3892" d="M15.433,11.575,13.011,9.814a.292.292,0,0,0-.464.236v3.52a.291.291,0,0,0,.16.26.294.294,0,0,0,.133.031.29.29,0,0,0,.172-.057l2.422-1.759a.29.29,0,0,0,0-.471Z" transform="translate(-7.677 -5.969)" fill="#555"/>
    <path id="Path_3893" data-name="Path 3893" d="M5.832,0a5.831,5.831,0,1,0,5.832,5.832A5.832,5.832,0,0,0,5.832,0Zm0,10.69A4.858,4.858,0,1,1,10.69,5.834,4.857,4.857,0,0,1,5.832,10.692Z" fill="#555"/>
  </g>
</svg>
