<svg id="wallet" xmlns="http://www.w3.org/2000/svg" width="16.575" height="13.066" viewBox="0 0 16.575 13.066">
  <g id="Group_976" data-name="Group 976" transform="translate(0 0)">
    <g id="Group_975" data-name="Group 975" transform="translate(0 0)">
      <path id="Path_844" data-name="Path 844" d="M16.258,48.582a1.148,1.148,0,0,0-.778-.318h.048V46.629A2.439,2.439,0,0,0,13.1,44.2H2.429A2.439,2.439,0,0,0,0,46.629v8.208a2.439,2.439,0,0,0,2.429,2.429H13.1a2.439,2.439,0,0,0,2.429-2.429V53.186H15.48a1.148,1.148,0,0,0,.778-.318,1.118,1.118,0,0,0,.318-.778V49.36A1.148,1.148,0,0,0,16.258,48.582Zm-1.6,6.24A1.572,1.572,0,0,1,13.1,56.377H2.429A1.572,1.572,0,0,1,.873,54.821V46.629a1.572,1.572,0,0,1,1.556-1.556H13.1a1.572,1.572,0,0,1,1.556,1.556v1.635H9.732a2.428,2.428,0,0,0-1.7.7,2.4,2.4,0,0,0-.7,1.7v.111a2.428,2.428,0,0,0,.7,1.7,2.4,2.4,0,0,0,1.7.7h4.922ZM15.7,52.091h0a.243.243,0,0,1-.064.159.2.2,0,0,1-.159.064H9.732a1.518,1.518,0,0,1-1.524-1.524v-.111a1.518,1.518,0,0,1,1.524-1.524H15.48a.243.243,0,0,1,.159.063.2.2,0,0,1,.064.159Z" transform="translate(0 -44.2)" fill="#555"/>
      <path id="Path_845" data-name="Path 845" d="M231.1,190.6a.7.7,0,0,0,0,1.4.765.765,0,0,0,.508-.206.706.706,0,0,0,.206-.508.765.765,0,0,0-.206-.508A.931.931,0,0,0,231.1,190.6Z" transform="translate(-221.255 -184.789)" fill="#555"/>
    </g>
  </g>
</svg>
