<svg xmlns="http://www.w3.org/2000/svg" width="14.726" height="11.082" viewBox="0 0 14.726 11.082">
  <g id="wi-fi" transform="translate(0 -2.569)">
    <g id="Group_230" data-name="Group 230" transform="translate(0 2.569)">
      <circle id="Ellipse_43" data-name="Ellipse 43" cx="1.72" cy="1.72" r="1.72" transform="translate(5.678 7.642)" fill="#61c9c8"/>
      <path id="Path_3899" data-name="Path 3899" d="M12.6,9.25c-.026-.026-.052-.05-.079-.074L12.441,9.1a.376.376,0,0,0-.043-.036,5.613,5.613,0,0,0-7.752.182L4.4,9.5l-.345.345a1.08,1.08,0,0,0,1.528,1.528l.594-.594a3.467,3.467,0,0,1,4.9,0l.429.416a1.072,1.072,0,0,0,1.825-.759,1.052,1.052,0,0,0-.311-.754Z" transform="translate(-1.087 -4.033)" fill="#61c9c8"/>
      <path id="Path_3900" data-name="Path 3900" d="M14.44,5.66,14.083,5.3s0,0,0,0L13.8,5.014a1.018,1.018,0,0,0-.16-.128A9.366,9.366,0,0,0,.984,5.177c-.017.016-.036.026-.053.043l-.645.646A.985.985,0,0,0,1.679,7.259l.645-.645A.084.084,0,0,1,2.337,6.6a7.394,7.394,0,0,1,10.2-.056l.508.508A.985.985,0,0,0,14.44,5.66Z" transform="translate(0 -2.569)" fill="#61c9c8"/>
    </g>
  </g>
</svg>
