<svg xmlns="http://www.w3.org/2000/svg" width="7.002" height="12.001" viewBox="0 0 7.002 12.001">
  <g id="arrow-left-right" transform="translate(0 12.001) rotate(-90)">
    <path id="Path_14" data-name="Path 14" d="M5.854,1.646a.5.5,0,0,1,0,.708L3.207,5,5.854,7.646a.5.5,0,0,1-.708.708l-3-3a.5.5,0,0,1,0-.708l3-3a.5.5,0,0,1,.708,0Z" transform="translate(-1.999 -1.499)" fill="#f8f8f8" fill-rule="evenodd"/>
    <path id="Path_15" data-name="Path 15" d="M2.5,5A.5.5,0,0,1,3,4.5H13.5a.5.5,0,0,1,0,1H3A.5.5,0,0,1,2.5,5Z" transform="translate(-1.999 -1.499)" fill="#f8f8f8" fill-rule="evenodd"/>
  </g>
</svg>
