<svg id="authentication" xmlns="http://www.w3.org/2000/svg" width="16" height="16" viewBox="0 0 16 16">
  <path id="Path_3860" data-name="Path 3860" d="M15.333,11.333H.667A.667.667,0,1,1,.667,10H15.333a.667.667,0,0,1,0,1.333Z" transform="translate(0 -3.333)" fill="#777"/>
  <path id="Path_3861" data-name="Path 3861" d="M3.333,0H2A2,2,0,0,0,0,2V3.333a.667.667,0,0,0,1.333,0V2A.667.667,0,0,1,2,1.333H3.333A.667.667,0,0,0,3.333,0Z" fill="#777"/>
  <path id="Path_3862" data-name="Path 3862" d="M3.333,20.667H2A.667.667,0,0,1,1.333,20V18.667a.667.667,0,1,0-1.333,0V20a2,2,0,0,0,2,2H3.333a.667.667,0,1,0,0-1.333Z" transform="translate(0 -6)" fill="#777"/>
  <path id="Path_3863" data-name="Path 3863" d="M20,0H18.667a.667.667,0,1,0,0,1.333H20A.667.667,0,0,1,20.667,2V3.333a.667.667,0,1,0,1.333,0V2A2,2,0,0,0,20,0Z" transform="translate(-6)" fill="#777"/>
  <path id="Path_3864" data-name="Path 3864" d="M21.333,18a.666.666,0,0,0-.667.667V20a.667.667,0,0,1-.667.667H18.667a.667.667,0,1,0,0,1.333H20a2,2,0,0,0,2-2V18.667A.666.666,0,0,0,21.333,18Z" transform="translate(-6 -6)" fill="#777"/>
  <path id="Path_3865" data-name="Path 3865" d="M15.316,8c.014-.145.033-.288.033-.435a4.609,4.609,0,0,0-9.217,0A1.279,1.279,0,0,1,6.049,8Z" transform="translate(-2.016 -1)" fill="#777"/>
  <path id="Path_3866" data-name="Path 3866" d="M4.141,13.5l-.025.04a.737.737,0,0,0,.626,1.133H5.45v1.174a1.223,1.223,0,0,0,1.225,1.217,1.093,1.093,0,0,0,.357-.055l.835-.25V18a.5.5,0,0,0,.5.5h4.35a.5.5,0,0,0,.5-.5V15.6a3.273,3.273,0,0,1,.611-1.906c.043-.061.074-.127.114-.19h-9.8Z" transform="translate(-1.333 -4.5)" fill="#777"/>
</svg>
