<svg xmlns="http://www.w3.org/2000/svg" width="16" height="13.231" viewBox="0 0 16 13.231">
  <g id="business-and-finance" transform="translate(0 -44.308)">
    <g id="Group_99" data-name="Group 99" transform="translate(7.308 51.173)">
      <g id="Group_98" data-name="Group 98">
        <path id="Path_3868" data-name="Path 3868" d="M235.116,264h-1.269v.519h1.269a.116.116,0,0,0,.115-.115v-.288A.116.116,0,0,0,235.116,264Z" transform="translate(-233.847 -264)" fill="#777"/>
      </g>
    </g>
    <g id="Group_101" data-name="Group 101" transform="translate(12.154 47.446)">
      <g id="Group_100" data-name="Group 100">
        <rect id="Rectangle_67" data-name="Rectangle 67" width="0.923" height="10.092" fill="#777"/>
      </g>
    </g>
    <g id="Group_103" data-name="Group 103" transform="translate(7.308 52.616)">
      <g id="Group_102" data-name="Group 102">
        <path id="Path_3869" data-name="Path 3869" d="M235.116,310.154h-1.269v.519h1.269a.116.116,0,0,0,.115-.115v-.288A.116.116,0,0,0,235.116,310.154Z" transform="translate(-233.847 -310.154)" fill="#777"/>
      </g>
    </g>
    <g id="Group_105" data-name="Group 105" transform="translate(14 47.385)">
      <g id="Group_104" data-name="Group 104">
        <path id="Path_3870" data-name="Path 3870" d="M448.615,142.769H448v10.154h.615A1.386,1.386,0,0,0,450,151.538v-7.385A1.386,1.386,0,0,0,448.615,142.769Z" transform="translate(-448 -142.769)" fill="#777"/>
      </g>
    </g>
    <g id="Group_107" data-name="Group 107" transform="translate(2.923 47.446)">
      <g id="Group_106" data-name="Group 106">
        <rect id="Rectangle_68" data-name="Rectangle 68" width="0.923" height="10.092" fill="#777"/>
      </g>
    </g>
    <g id="Group_109" data-name="Group 109" transform="translate(0 47.385)">
      <g id="Group_108" data-name="Group 108">
        <path id="Path_3871" data-name="Path 3871" d="M1.385,142.769A1.386,1.386,0,0,0,0,144.154v7.385a1.386,1.386,0,0,0,1.385,1.385H2V142.769Z" transform="translate(0 -142.769)" fill="#777"/>
      </g>
    </g>
    <g id="Group_111" data-name="Group 111" transform="translate(4.769 47.385)">
      <g id="Group_110" data-name="Group 110">
        <path id="Path_3872" data-name="Path 3872" d="M152.615,142.769v10.154h6.462V142.769Zm4.846,4.192a1.036,1.036,0,0,0,0,1.154v.288a1.04,1.04,0,0,1-1.038,1.038h-.115v.4a.462.462,0,0,1-.923,0v-.4h-.692a.462.462,0,0,1-.462-.462V146.1a.462.462,0,0,1,.462-.462h.692v-.4a.462.462,0,1,1,.923,0v.4h.115a1.04,1.04,0,0,1,1.038,1.038Z" transform="translate(-152.615 -142.769)" fill="#777"/>
      </g>
    </g>
    <g id="Group_113" data-name="Group 113" transform="translate(3.499 44.308)">
      <g id="Group_112" data-name="Group 112">
        <path id="Path_3873" data-name="Path 3873" d="M120.6,44.7a.462.462,0,0,0-.456-.387h-7.384a.462.462,0,0,0-.453.371l-.357,1.783h9Z" transform="translate(-111.952 -44.308)" fill="#777"/>
      </g>
    </g>
  </g>
</svg>
