<svg id="sheet" xmlns="http://www.w3.org/2000/svg" width="17.441" height="16" viewBox="0 0 17.441 16">
  <g id="Group_169" data-name="Group 169" transform="translate(0 2.857)">
    <g id="Group_168" data-name="Group 168">
      <path id="Path_3889" data-name="Path 3889" d="M12.458,85.333H1.869A1.8,1.8,0,0,0,0,87.047v9.714a1.8,1.8,0,0,0,1.869,1.714H12.458a1.8,1.8,0,0,0,1.869-1.714V87.047A1.8,1.8,0,0,0,12.458,85.333Zm.623,11.429a.6.6,0,0,1-.623.571H1.869a.6.6,0,0,1-.623-.571V87.047a.6.6,0,0,1,.623-.571H12.458a.6.6,0,0,1,.623.571Z" transform="translate(0 -85.333)" fill="#61c9c8"/>
    </g>
  </g>
  <g id="Group_171" data-name="Group 171" transform="translate(2.492)">
    <g id="Group_170" data-name="Group 170">
      <path id="Path_3890" data-name="Path 3890" d="M81.348,0H70.136a1.8,1.8,0,0,0-1.869,1.714.625.625,0,0,0,1.246,0,.6.6,0,0,1,.623-.571H81.348a.6.6,0,0,1,.623.571V12a.6.6,0,0,1-.623.571.574.574,0,1,0,0,1.143A1.8,1.8,0,0,0,83.216,12V1.714A1.8,1.8,0,0,0,81.348,0Z" transform="translate(-68.267)" fill="#61c9c8"/>
    </g>
  </g>
</svg>
