<svg xmlns="http://www.w3.org/2000/svg" width="16" height="16" viewBox="0 0 16 16">
  <g id="logout_2_" data-name="logout (2)" transform="translate(0 -0.003)">
    <g id="Group_115" data-name="Group 115" transform="translate(0 0.003)">
      <g id="Group_114" data-name="Group 114" transform="translate(0 0)">
        <path id="Path_3874" data-name="Path 3874" d="M6,8A2,2,0,0,1,8,6h2.667V.67A.666.666,0,0,0,10,0H.667A.666.666,0,0,0,0,.67V15.336A.666.666,0,0,0,.667,16H10a.666.666,0,0,0,.667-.667V10H8A2,2,0,0,1,6,8Z" transform="translate(0 -0.003)" fill="#777"/>
        <path id="Path_3875" data-name="Path 3875" d="M243.184,153.084l.006-.008c.011-.014.023-.029.033-.045l.013-.022c.007-.011.014-.022.02-.033s.009-.019.014-.029.01-.02.014-.03.008-.022.012-.033.007-.018.01-.028.007-.026.01-.04,0-.015.006-.023.006-.036.008-.055c0,0,0-.006,0-.009a.67.67,0,0,0,0-.135s0-.006,0-.009c0-.018,0-.037-.008-.055s0-.015-.006-.023-.006-.026-.01-.04-.006-.018-.01-.028-.008-.022-.012-.033-.009-.02-.014-.03-.009-.019-.014-.029-.013-.022-.02-.033l-.013-.022c-.01-.015-.021-.03-.033-.045l-.006-.008a.66.66,0,0,0-.048-.053l-2.664-2.664a.667.667,0,0,0-.943.943L241.058,152h-5.724a.667.667,0,0,0,0,1.333h5.724l-1.529,1.529a.667.667,0,1,0,.943.943l2.664-2.664A.654.654,0,0,0,243.184,153.084Z" transform="translate(-227.334 -144.663)" fill="#777"/>
      </g>
    </g>
  </g>
</svg>
