<svg id="user_2_" data-name="user (2)" xmlns="http://www.w3.org/2000/svg" width="48" height="48" viewBox="0 0 48 48">
  <path id="Path_3876" data-name="Path 3876" d="M24,48a24,24,0,1,1,18.351-8.531,24.252,24.252,0,0,1-2.832,2.839A24.007,24.007,0,0,1,24,48ZM24,3A21,21,0,0,0,7.941,37.534a21.246,21.246,0,0,0,2.48,2.486,21,21,0,0,0,27.157,0,21.245,21.245,0,0,0,2.481-2.487A21,21,0,0,0,24,3Z" transform="translate(0 0)" fill="#555"/>
  <path id="Path_3877" data-name="Path 3877" d="M169,82a9,9,0,1,1,9-9A9.01,9.01,0,0,1,169,82Zm0-15a6,6,0,1,0,6,6A6.007,6.007,0,0,0,169,67Z" transform="translate(-145 -58)" fill="#555"/>
  <path id="Path_3878" data-name="Path 3878" d="M111.05,245.664a1.5,1.5,0,0,1-1.456-1.866A13.512,13.512,0,0,0,96.7,227h-.4a13.512,13.512,0,0,0-12.9,16.8,1.5,1.5,0,1,1-2.91.73A16.5,16.5,0,0,1,96.266,224h.468a16.512,16.512,0,0,1,15.77,20.528A1.5,1.5,0,0,1,111.05,245.664Z" transform="translate(-72.5 -203)" fill="#555"/>
</svg>
