<svg xmlns="http://www.w3.org/2000/svg" width="16" height="16" viewBox="0 0 16 16">
  <path id="wallet" d="M14.832,12.526a.267.267,0,0,1,.268.267v2.371A1.335,1.335,0,0,1,13.767,16.5H1.333A1.335,1.335,0,0,1,0,15.164V5.21A1.335,1.335,0,0,1,1.333,3.874H13.767A1.335,1.335,0,0,1,15.1,5.21V7.581a.267.267,0,0,1-.268.267c-.277,0-.912,0-2.465,0a1.6,1.6,0,0,0-1.6,1.6v1.47a1.6,1.6,0,0,0,1.6,1.6C13.943,12.525,14.561,12.527,14.832,12.526ZM16,9.452v1.47a1.069,1.069,0,0,1-1.066,1.069H12.367A1.069,1.069,0,0,1,11.3,10.922V9.452a1.069,1.069,0,0,1,1.067-1.069h2.567A1.069,1.069,0,0,1,16,9.452Zm-2.633.735A.267.267,0,0,0,13.1,9.92h-.4a.267.267,0,0,0,0,.534h.4A.267.267,0,0,0,13.367,10.187ZM12.687,2.2l-.249-.073a.267.267,0,0,0-.285.091,1.573,1.573,0,0,0-.383.83.267.267,0,0,0,.266.289h1.139a.266.266,0,0,0,.263-.315,1.068,1.068,0,0,0-.751-.822Zm-1.453.877a1.76,1.76,0,0,1,.28-.874.267.267,0,0,0-.153-.395l-1.691-.5a.263.263,0,0,0-.337.256v1.5a.267.267,0,0,0,.267.267h1.368A.267.267,0,0,0,11.234,3.08Zm-6.567.26h.367A.267.267,0,0,0,5.3,3.072V.767A.267.267,0,0,0,5.033.5H4.667A.267.267,0,0,0,4.4.767v2.3A.267.267,0,0,0,4.667,3.339ZM7.733.5H6.1a.267.267,0,0,0-.267.267v2.3a.267.267,0,0,0,.267.267H8.533A.267.267,0,0,0,8.8,3.072v-1.5A1.069,1.069,0,0,0,7.733.5ZM3.6.5H3.233A1.068,1.068,0,0,0,2.167,1.569v1.5a.267.267,0,0,0,.267.267H3.6a.267.267,0,0,0,.267-.267V.767A.267.267,0,0,0,3.6.5Z" transform="translate(0 -0.5)" fill="#777"/>
</svg>
